<svg xmlns="http://www.w3.org/2000/svg" width="114" height="98"><defs><linearGradient id="a" x1=".544" y1=".654" x2=".53" y2="1" gradientUnits="objectBoundingBox"><stop offset="0" stop-color="#023c8e"/><stop offset="1" stop-color="#000206"/></linearGradient><clipPath id="b"><path d="M138.384 305.9h111.341l-33.4 64.34a30.082 30.082 0 01-28.8 17.257c-21.358-.748-30.041-20.8-30.041-20.8z" transform="translate(0 -5.191)" fill="#00ff3c"/></clipPath><style>.d{fill:#b3b3b3}.e,.h{fill:#ccc}.f{fill:#e6e6e6}.g{fill:#999}.h{mix-blend-mode:multiply;isolation:isolate}.k{fill:#ff6310}</style></defs><g transform="translate(27.137 30.341)" stroke="rgba(1,104,179,.21)" stroke-width="4" fill="url(#a)"><circle cx="32" cy="32" r="32" stroke="none"/><circle cx="32" cy="32" r="34" fill="none"/></g><g clip-path="url(#b)" transform="translate(-128.863 -287.659)"><g transform="translate(-462.82 -270.186)"><ellipse class="d" cx="23.721" cy="3.072" rx="23.721" ry="3.072" transform="translate(627.995 655.024)"/><path class="e" d="M673.572 656.53a24.815 24.815 0 01-7.428-10.642l-14.427 1.868-14.427-1.868a24.816 24.816 0 01-7.428 10.642c-.32.195-.492.4-.492.6 0 1.6 10 2.893 22.345 2.893s22.346-1.3 22.346-2.893c0-.203-.172-.405-.489-.6z"/><ellipse class="f" cx="14.427" cy="4.834" rx="14.427" ry="4.834" transform="translate(637.289 666.375)"/><path class="d" d="M658.915 639.176c-.964-.28-7.2.223-7.2.223s-6.235-.5-7.2-.223-.819 3.687-7.228 6.711l14.427 1.868 14.427-1.868c-6.407-3.024-6.262-6.431-7.226-6.711z"/><path class="g" d="M658.888 653.535l-.006-.019a1.943 1.943 0 00-.137-.444c-.8-2.729-2.873-12.363 6.15-21.145l-13.179-1.985-13.178 1.988c9.022 8.783 6.949 18.416 6.15 21.145a1.946 1.946 0 00-.137.444l-.006.019a1.791 1.791 0 00-.032.308c0 1.985 3.223 3.6 7.2 3.6s7.2-1.61 7.2-3.6a1.791 1.791 0 00-.032-.308z"/><path class="h" d="M674.046 657.058a.913.913 0 00-.477-.528 24.817 24.817 0 01-7.428-10.642c0-.313-.6-.607-1.649-.866-4.742-2.775-4.706-5.592-5.579-5.845a.293.293 0 00-.032-.119l-.006-.007a.532.532 0 00-.137-.172c-.8-1.055-2.873-4.778 6.15-8.171l-13.172-.766v31.227c13.1 0 23.721-1.375 23.721-3.071-.001-.366-.493-.716-1.391-1.04z"/><path class="d" d="M684.874 590.297h-66.315c0 9.82-.78 31.885 20.494 41.878l.136.068c.039.018.074.038.113.056h.019c2.753 1.3 7.274 2.153 12.4 2.153s9.642-.852 12.4-2.153h.019c.039-.018.074-.038.113-.056l.136-.068c21.264-9.993 20.485-32.06 20.485-41.878z"/><path class="e" d="M667.024 613.311c-2.194 4.3-2.18 8.7.033 9.827s5.784-1.44 7.978-5.738 2.18-8.7-.033-9.827-5.784 1.439-7.978 5.738z"/><path class="h" d="M684.874 590.297h-33.158v44.158c5.122 0 9.642-.852 12.4-2.153h.019c.039-.018.074-.038.113-.056l.136-.068c21.269-9.996 20.49-32.063 20.49-41.881z"/><path class="g" d="M658.387 579.412s-5.351-2.865-6.671-5.226v6.251z"/><path class="g" d="M645.045 579.412l6.671 1.025v-6.251c-1.32 2.361-6.671 5.226-6.671 5.226z"/><path class="h" d="M658.387 579.412s-5.351-2.865-6.671-5.226v6.251z"/><g transform="translate(618.559 579.187)"><ellipse class="f" cx="33.157" cy="11.11" rx="33.157" ry="11.11"/><ellipse cx="29.425" cy="9.86" rx="29.425" ry="9.86" transform="translate(3.732 1.251)" fill="#666"/><path class="h" d="M33.157 0v22.221c18.312 0 33.158-4.975 33.158-11.11S51.469 0 33.157 0z"/></g><path class="e" d="M651.716 592.738c3.633 5.012 9.9 8.288 9.9 8.288-5.2 4.241-10.536 28.913-2.12 28.913 13.653 0 30.092-20.278 21.648-34.523 2.446-6.052 4.47-7.208 4.278-11.545 3.983 19.179-1.831 38.647-20.022 47.8-5.854 2.947-9.169 3.951-13.68 3.951"/><path class="g" d="M685.419 583.871c-.418 3.662-4.278 6.426-4.278 6.426a21.183 21.183 0 010 5.12c2.446-6.053 4.47-7.209 4.278-11.546z"/><path class="e" d="M651.716 592.738c-3.633 5.012-9.9 8.288-9.9 8.288 5.2 4.241 10.536 28.913 2.12 28.913-13.653 0-30.092-20.278-21.648-34.523-2.446-6.052-4.47-7.208-4.278-11.545-3.983 19.179 1.831 38.647 20.022 47.8 5.854 2.947 9.169 3.951 13.68 3.951"/><path class="g" d="M618.013 583.871c.418 3.662 4.278 6.426 4.278 6.426a21.187 21.187 0 000 5.12c-2.442-6.053-4.471-7.209-4.278-11.546z"/><path class="h" d="M685.419 583.871c-.418 3.662-4.278 6.426-4.278 6.426a21.183 21.183 0 010 5.12c8.444 14.245-7.995 34.523-21.648 34.523-8.416 0-3.084-24.672 2.12-28.913 0 0-6.265-3.277-9.9-8.288v42.884c4.511 0 7.827-1 13.68-3.951 18.194-9.149 24.009-28.622 20.026-47.801z"/><path class="e" d="M636.408 613.311c2.194 4.3 2.18 8.7-.033 9.827s-5.784-1.44-7.979-5.738-2.18-8.7.033-9.827 5.784 1.439 7.979 5.738z"/><path d="M651.62 585.685l2.386 7.273h7.614l-6.136 4.545 2.273 7.273-6.136-4.545-6.136 4.545 2.273-7.273-6.136-4.545h7.614z" fill="#fff"/></g></g><path class="e" d="M104.547 36.09l-1.735-.352a.767.767 0 010-1.5l1.735-.352a4.343 4.343 0 003.394-3.396l.352-1.735a.767.767 0 011.5 0l.352 1.735a4.343 4.343 0 003.396 3.4l1.735.352a.767.767 0 010 1.5l-1.735.352a4.343 4.343 0 00-3.394 3.396l-.352 1.735a.767.767 0 01-1.5 0l-.354-1.735a4.343 4.343 0 00-3.394-3.4zM28.155 5.825l-.534-.108a.236.236 0 010-.462l.534-.108a1.336 1.336 0 001.044-1.044l.108-.534a.236.236 0 01.462 0l.108.534a1.336 1.336 0 001.044 1.044l.534.108a.236.236 0 010 .462l-.534.108a1.336 1.336 0 00-1.044 1.044l-.108.534a.236.236 0 01-.462 0l-.108-.534a1.336 1.336 0 00-1.044-1.044zM10.014 11.033l-2.408-.488a1.064 1.064 0 010-2.086l2.408-.488a6.026 6.026 0 004.708-4.708L15.21.855a1.064 1.064 0 012.086 0l.488 2.408a6.026 6.026 0 004.708 4.708l2.408.488a1.064 1.064 0 010 2.086l-2.408.488a6.026 6.026 0 00-4.708 4.708l-.488 2.408a1.064 1.064 0 01-2.086 0l-.488-2.408a6.026 6.026 0 00-4.708-4.708z"/><path class="k" d="M4.481 22.976a.747.747 0 00.747-.747v-2.022a.747.747 0 00-1.494 0v2.022a.747.747 0 00.747.747zM4.481 28.421a.747.747 0 00.747-.747v-2.022a.747.747 0 00-1.494 0v2.022a.747.747 0 00.747.747zM.747 24.688h2.022a.747.747 0 000-1.494H.747a.747.747 0 100 1.494zM6.189 24.688h2.022a.747.747 0 000-1.494H6.189a.747.747 0 000 1.494z"/><g><path class="k" d="M96.863 16.928a1.017 1.017 0 001.017-1.017v-2.753a1.017 1.017 0 10-2.033 0v2.753a1.017 1.017 0 001.016 1.017zM96.863 24.339a1.017 1.017 0 001.017-1.017v-2.753a1.017 1.017 0 00-2.033 0v2.753a1.017 1.017 0 001.016 1.017zM91.781 19.255h2.753a1.017 1.017 0 000-2.033h-2.753a1.017 1.017 0 100 2.033zM99.192 19.255h2.753a1.017 1.017 0 000-2.033h-2.753a1.017 1.017 0 000 2.033z"/></g></svg>